<svg width="25" height="25" viewBox="0 0 25 25" fill="none" xmlns="http://www.w3.org/2000/svg">
<path d="M9.97497 7.41536L9.9775 7.41636C10.03 7.19486 10.2209 7.03186 10.4597 7.03186H17.2625C17.2711 7.03186 17.2797 7.02836 17.2882 7.02886C17.1433 4.63936 15.119 3.53186 13.3329 3.53186H6.53016C6.29082 3.53186 6.09994 3.69936 6.04793 3.92036L6.04541 3.91936L3.07172 17.4384L3.07829 17.4389C3.07122 17.4709 3.05859 17.5014 3.05859 17.5359C3.05859 17.8124 3.28431 18.0314 3.56355 18.0314H7.63905L9.97497 7.41536Z" fill="#1565C0"/>
<path d="M17.2891 7.02878C17.3158 7.46678 17.2866 7.94328 17.1734 8.46978C16.5266 11.4673 14.1882 13.0273 11.2983 13.0273C11.2983 13.0273 9.54609 13.0273 9.12042 13.0273C8.85733 13.0273 8.73311 13.1803 8.67605 13.2973L7.79743 17.3218L7.64342 18.0363H7.64039L7.00263 20.9343L7.0092 20.9348C7.00213 20.9668 6.9895 20.9973 6.9895 21.0318C6.9895 21.3083 7.21522 21.5318 7.49446 21.5318H11.1973L11.2039 21.5268C11.4422 21.5233 11.6316 21.3548 11.681 21.1328L11.6901 21.1253L12.6051 16.9173C12.6051 16.9173 12.6687 16.5158 13.0949 16.5158C13.5211 16.5158 15.2046 16.5158 15.2046 16.5158C18.0945 16.5158 20.4567 14.9628 21.104 11.9648C21.8322 8.58478 19.3973 7.04128 17.2891 7.02878Z" fill="#039BE5"/>
<path d="M10.4601 7.03161C10.2207 7.03161 10.0298 7.19461 9.97783 7.41611L9.97531 7.41511L8.67505 13.2976C8.73211 13.1806 8.85633 13.0276 9.11941 13.0276C9.54559 13.0276 11.2579 13.0276 11.2579 13.0276C14.1478 13.0276 16.5256 11.4676 17.1724 8.47011C17.2861 7.94361 17.3148 7.46711 17.2881 7.02911C17.28 7.02811 17.2709 7.03161 17.2628 7.03161H10.4601Z" fill="#283593"/>
</svg>
